<svg width="16" height="16" viewBox="0 0 16 16" fill="none" xmlns="http://www.w3.org/2000/svg">
<path d="M7.106 15.553L0.553 12.276C0.386919 12.1931 0.247222 12.0655 0.149552 11.9076C0.0518831 11.7497 9.91486e-05 11.5677 0 11.382V9.47104C0.00558888 9.28034 0.0656134 9.09522 0.17299 8.93752C0.280367 8.77982 0.430614 8.65613 0.606 8.58104L6 6.26904V7.35704L1 9.50004L6.658 12.33C7.07466 12.5384 7.53413 12.6469 8 12.6469C8.46587 12.6469 8.92534 12.5384 9.342 12.33L15 9.50004L10 7.35704V6.27004L15.394 8.58204C15.5694 8.65713 15.7196 8.78082 15.827 8.93852C15.9344 9.09622 15.9944 9.28134 16 9.47204V11.383C15.9999 11.5687 15.9481 11.7507 15.8504 11.9086C15.7528 12.0665 15.6131 12.1941 15.447 12.277L8.894 15.554C8.6164 15.6928 8.31033 15.765 8 15.765C7.68967 15.765 7.3836 15.6928 7.106 15.554V15.553Z" fill="#C4C4C4"/>
<path fill-rule="evenodd" clip-rule="evenodd" d="M7.5 9.5V3.5H8.5V9.5H7.5Z" fill="#C4C4C4"/>
<path d="M10 9.75C10 10.164 9.105 10.5 8 10.5C6.895 10.5 6 10.164 6 9.75C6 9.336 6.895 9 8 9C9.105 9 10 9.336 10 9.75ZM10 2C10 2.53043 9.78929 3.03914 9.41421 3.41421C9.03914 3.78929 8.53043 4 8 4C7.46957 4 6.96086 3.78929 6.58579 3.41421C6.21071 3.03914 6 2.53043 6 2C6 1.46957 6.21071 0.960859 6.58579 0.585786C6.96086 0.210714 7.46957 0 8 0C8.53043 0 9.03914 0.210714 9.41421 0.585786C9.78929 0.960859 10 1.46957 10 2Z" fill="#C4C4C4"/>
</svg>
