<svg width="14" height="14" viewBox="0 0 14 14" fill="none" xmlns="http://www.w3.org/2000/svg">
<path d="M4.33274 8.14596C4.47024 8.38596 4.77774 8.46796 5.01524 8.32946L6.66824 7.49046C6.69524 7.49446 6.72224 7.49946 6.75074 7.49946C7.16574 7.49946 7.50074 7.16446 7.50074 6.74946L7.25074 2.81146C7.25074 2.67885 7.19806 2.55168 7.1043 2.45791C7.01053 2.36414 6.88335 2.31146 6.75074 2.31146C6.61813 2.31146 6.49096 2.36414 6.39719 2.45791C6.30342 2.55168 6.25074 2.67885 6.25074 2.81146L6.01824 6.48296L4.51624 7.46296C4.40171 7.52943 4.31823 7.63863 4.28411 7.76658C4.24999 7.89453 4.26802 8.03079 4.33424 8.14546L4.33274 8.14596ZM5.03074 3.77246C5.08765 3.73968 5.13754 3.69599 5.17755 3.64391C5.21755 3.59182 5.2469 3.53236 5.26389 3.46892C5.28089 3.40548 5.28521 3.33931 5.27661 3.2742C5.268 3.20908 5.24664 3.14631 5.21374 3.08946C5.1644 3.00386 5.09078 2.93481 5.00219 2.89105C4.9136 2.84729 4.81402 2.83079 4.71605 2.84363C4.61808 2.85647 4.52612 2.89808 4.4518 2.9632C4.37749 3.02831 4.32415 3.11401 4.29854 3.20944C4.27294 3.30487 4.27621 3.40576 4.30795 3.49933C4.33968 3.5929 4.39846 3.67496 4.47684 3.73512C4.55522 3.79529 4.64968 3.83085 4.74828 3.83732C4.84687 3.84379 4.94517 3.82087 5.03074 3.77146V3.77246ZM3.08974 8.28596C3.00407 8.33544 2.935 8.40923 2.89127 8.49798C2.84755 8.58673 2.83114 8.68645 2.84412 8.78454C2.8571 8.88262 2.89888 8.97464 2.96418 9.04897C3.02949 9.12329 3.11537 9.17657 3.21097 9.20206C3.30656 9.22755 3.40757 9.22411 3.50121 9.19217C3.59485 9.16023 3.67691 9.10123 3.737 9.02264C3.79709 8.94404 3.83252 8.84939 3.83879 8.75065C3.84507 8.65191 3.82191 8.55353 3.77224 8.46796C3.70548 8.35348 3.59615 8.27005 3.4681 8.23586C3.34006 8.20167 3.20369 8.2195 3.08874 8.28546L3.08974 8.28596ZM3.58974 4.34796C3.53278 4.31264 3.46931 4.28914 3.40308 4.27884C3.33686 4.26854 3.26924 4.27166 3.20424 4.28801C3.13925 4.30437 3.07821 4.33362 3.02474 4.37404C2.97128 4.41445 2.92649 4.4652 2.89303 4.52327C2.85957 4.58134 2.83812 4.64554 2.82997 4.71207C2.82181 4.77859 2.82711 4.84607 2.84556 4.9105C2.864 4.97494 2.89521 5.035 2.93733 5.08713C2.97945 5.13926 3.03162 5.1824 3.09074 5.21396C3.20517 5.27398 3.33838 5.28736 3.46246 5.25132C3.58654 5.21527 3.69185 5.13259 3.75631 5.02061C3.82077 4.90863 3.83938 4.77604 3.80823 4.65064C3.77709 4.52524 3.69861 4.41677 3.58924 4.34796H3.58974ZM2.31174 6.74996C2.31188 6.8827 2.36473 7.00996 2.45869 7.10372C2.55265 7.19749 2.68 7.2501 2.81274 7.24996C2.94548 7.24983 3.07274 7.19697 3.1665 7.10302C3.26027 7.00906 3.31288 6.8817 3.31274 6.74896C3.31261 6.61622 3.25975 6.48897 3.1658 6.3952C3.07184 6.30143 2.94448 6.24883 2.81174 6.24896C2.679 6.2491 2.55175 6.30195 2.45798 6.39591C2.36421 6.48987 2.31161 6.61722 2.31174 6.74996ZM6.25024 10.6885C6.25018 10.7542 6.26306 10.8193 6.28815 10.88C6.31324 10.9408 6.35005 10.996 6.39648 11.0425C6.44291 11.089 6.49805 11.126 6.55875 11.1512C6.61945 11.1764 6.68452 11.1894 6.75024 11.1895C6.81597 11.1895 6.88107 11.1766 6.94181 11.1516C7.00256 11.1265 7.05777 11.0897 7.1043 11.0432C7.15082 10.9968 7.18774 10.9417 7.21295 10.881C7.23817 10.8203 7.25118 10.7552 7.25124 10.6895C7.25138 10.5567 7.19877 10.4294 7.105 10.3354C7.01124 10.2415 6.88398 10.1886 6.75124 10.1885C6.6185 10.1883 6.49115 10.2409 6.39719 10.3347C6.30323 10.4285 6.25038 10.5557 6.25024 10.6885ZM4.34824 9.91096C4.21074 10.151 4.29324 10.456 4.53124 10.5935C4.61688 10.643 4.71529 10.666 4.814 10.6595C4.91271 10.6531 5.00729 10.6175 5.08578 10.5573C5.16427 10.4971 5.22314 10.415 5.25494 10.3213C5.28674 10.2276 5.29003 10.1266 5.26442 10.0311C5.2388 9.93555 5.18541 9.84975 5.11102 9.78455C5.03662 9.71935 4.94456 9.67769 4.84648 9.66483C4.7484 9.65197 4.64871 9.66849 4.56002 9.7123C4.47133 9.75612 4.39763 9.82525 4.34824 9.91096ZM9.91124 4.34796C9.85212 4.37953 9.79995 4.42266 9.75783 4.47479C9.71571 4.52692 9.6845 4.58699 9.66606 4.65142C9.64762 4.71585 9.64231 4.78334 9.65047 4.84986C9.65862 4.91638 9.68007 4.98059 9.71353 5.03865C9.74699 5.09672 9.79178 5.14747 9.84524 5.18789C9.89871 5.2283 9.95975 5.25756 10.0247 5.27391C10.0897 5.29026 10.1574 5.29339 10.2236 5.28309C10.2898 5.27279 10.3533 5.24928 10.4102 5.21396C10.5206 5.14555 10.6 5.03692 10.6316 4.91103C10.6633 4.78514 10.6448 4.65187 10.58 4.53939C10.5152 4.42692 10.4092 4.34406 10.2844 4.30833C10.1596 4.27261 10.0258 4.28682 9.91124 4.34796ZM9.72824 8.46896C9.69489 8.52585 9.67313 8.58877 9.66419 8.6541C9.65526 8.71943 9.65934 8.78589 9.67619 8.84964C9.69305 8.91339 9.72235 8.97317 9.7624 9.02555C9.80245 9.07793 9.85247 9.12187 9.90958 9.15485C9.96668 9.18782 10.0297 9.20917 10.0951 9.21766C10.1605 9.22616 10.227 9.22165 10.2906 9.20437C10.3542 9.18709 10.4138 9.1574 10.4659 9.117C10.518 9.0766 10.5617 9.02629 10.5942 8.96896C10.6595 8.85418 10.6767 8.71825 10.6421 8.59083C10.6075 8.46341 10.5239 8.35485 10.4096 8.28883C10.2952 8.22281 10.1594 8.2047 10.0318 8.23845C9.90414 8.27219 9.79502 8.35506 9.72824 8.46896ZM11.1892 6.74996C11.1892 6.47496 10.9652 6.24996 10.6892 6.24996C10.5904 6.24996 10.4937 6.27929 10.4115 6.33423C10.3292 6.38917 10.2651 6.46726 10.2273 6.55862C10.1895 6.64998 10.1796 6.75052 10.1989 6.84751C10.2181 6.9445 10.2658 7.03359 10.3357 7.10352C10.4056 7.17344 10.4947 7.22106 10.5917 7.24036C10.6887 7.25965 10.7892 7.24975 10.8806 7.2119C10.9719 7.17406 11.05 7.10997 11.105 7.02775C11.1599 6.94552 11.1892 6.84885 11.1892 6.74996ZM8.28674 10.411C8.31957 10.4678 8.36327 10.5175 8.41534 10.5574C8.4674 10.5974 8.52682 10.6266 8.5902 10.6436C8.65357 10.6605 8.71967 10.6648 8.7847 10.6562C8.84974 10.6476 8.91245 10.6263 8.96924 10.5935C9.02604 10.5606 9.07581 10.5169 9.11572 10.4649C9.15563 10.4128 9.1849 10.3534 9.20184 10.29C9.21879 10.2266 9.22309 10.1605 9.21449 10.0955C9.2059 10.0305 9.18457 9.96776 9.15174 9.91096C9.11915 9.85364 9.07554 9.80333 9.02343 9.76293C8.97132 9.72253 8.91173 9.69284 8.84809 9.67556C8.78445 9.65828 8.71803 9.65376 8.65264 9.66226C8.58725 9.67076 8.52418 9.69211 8.46708 9.72508C8.40997 9.75805 8.35995 9.80199 8.3199 9.85437C8.27985 9.90675 8.25055 9.96654 8.23369 10.0303C8.21684 10.094 8.21276 10.1605 8.22169 10.2258C8.23063 10.2912 8.25239 10.3541 8.28574 10.411H8.28674ZM8.46974 3.77296C8.58465 3.83907 8.72111 3.85682 8.8491 3.82231C8.97709 3.78781 9.08614 3.70387 9.15224 3.58896C9.21835 3.47406 9.2361 3.3376 9.20159 3.20961C9.16709 3.08161 9.08315 2.97257 8.96824 2.90646C8.85373 2.84532 8.71993 2.83111 8.59513 2.86683C8.47033 2.90256 8.36432 2.98542 8.29951 3.09789C8.2347 3.21037 8.21617 3.34364 8.24785 3.46953C8.27952 3.59542 8.35892 3.70405 8.46924 3.77246L8.46974 3.77296ZM13.3512 6.18196C13.0362 2.53596 9.82624 -0.165038 6.18124 0.146962C4.61938 0.282072 3.15684 0.969555 2.05624 2.08596L1.17024 1.34096L0.516243 5.02246L4.03124 3.74846L3.21374 3.05996C4.05274 2.2461 5.14636 1.74591 6.31074 1.64346C7.66472 1.52844 9.00902 1.9553 10.0486 2.83037C11.0882 3.70544 11.7381 4.95721 11.8557 6.31096C11.9708 7.66478 11.5441 9.00894 10.6692 10.0485C9.79434 11.088 8.54281 11.7381 7.18924 11.856C4.36774 12.094 1.88924 10.009 1.64324 7.18946C1.59224 6.58696 1.65324 6.00246 1.79824 5.44946L0.163243 6.04296C0.118243 6.45896 0.110243 6.88496 0.148243 7.31796C0.462243 10.963 3.67174 13.663 7.31824 13.351C10.9632 13.036 13.6647 9.82696 13.3522 6.18096L13.3512 6.18196Z" fill="#C4C4C4"/>
</svg>
