<svg width="17" height="17" viewBox="0 0 17 17" fill="none" xmlns="http://www.w3.org/2000/svg">
<path d="M16.4118 12.8213H14.625C14.4926 13.2018 14.2831 13.5497 13.9963 13.8649L14.7739 15.2183C14.8401 15.3488 14.8539 15.4792 14.8153 15.6097C14.7767 15.7401 14.7022 15.8434 14.5919 15.9195L13.7151 16.4249C13.5937 16.4902 13.4669 16.5065 13.3346 16.4739C13.2022 16.4413 13.1029 16.3597 13.0368 16.2293L12.2426 14.8596C12.0221 14.9031 11.8235 14.9248 11.6471 14.9248C11.4706 14.9248 11.2721 14.9031 11.0515 14.8596L10.2574 16.2293C10.1912 16.3597 10.0919 16.4413 9.95956 16.4739C9.82721 16.5065 9.70037 16.4902 9.57904 16.4249L8.70221 15.9195C8.59191 15.8434 8.51746 15.7401 8.47886 15.6097C8.44026 15.4792 8.45404 15.3488 8.52022 15.2183L9.29779 13.8649C9.01103 13.5497 8.80147 13.2018 8.66912 12.8213H6.88235C6.73897 12.8213 6.61489 12.7724 6.51011 12.6746C6.40533 12.5768 6.35294 12.4517 6.35294 12.2996V11.256C6.35294 11.1147 6.40533 10.9924 6.51011 10.8891C6.61489 10.7858 6.73897 10.7342 6.88235 10.7342H8.66912C8.80147 10.3646 9.01103 10.0222 9.29779 9.70691L8.52022 8.35352C8.45404 8.22308 8.44026 8.09263 8.47886 7.96218C8.51746 7.83174 8.59191 7.72847 8.70221 7.65237L9.57904 7.14689C9.70037 7.08166 9.82721 7.06536 9.95956 7.09797C10.0919 7.13058 10.1912 7.20668 10.2574 7.32625L11.0515 8.71225C11.2721 8.66877 11.4706 8.64703 11.6471 8.64703C11.8235 8.64703 12.0221 8.66877 12.2426 8.71225L13.0368 7.32625C13.1029 7.20668 13.2022 7.13058 13.3346 7.09797C13.4669 7.06536 13.5937 7.08166 13.7151 7.14689L14.5919 7.65237C14.7022 7.72847 14.7767 7.83174 14.8153 7.96218C14.8539 8.09263 14.8401 8.22308 14.7739 8.35352L13.9963 9.70691C14.2831 10.0222 14.4926 10.3646 14.625 10.7342H16.4118C16.5551 10.7342 16.6792 10.7858 16.784 10.8891C16.8888 10.9924 16.9412 11.1147 16.9412 11.256V12.2996C16.9412 12.4517 16.8888 12.5768 16.784 12.6746C16.6792 12.7724 16.5551 12.8213 16.4118 12.8213ZM11.6471 10.7342C11.3493 10.7342 11.0983 10.8375 10.8943 11.044C10.6903 11.2505 10.5882 11.4978 10.5882 11.7859C10.5882 12.074 10.6903 12.3186 10.8943 12.5197C11.0983 12.7208 11.3493 12.8213 11.6471 12.8213C11.9449 12.8213 12.1958 12.7208 12.3998 12.5197C12.6039 12.3186 12.7059 12.074 12.7059 11.7859C12.7059 11.4978 12.6039 11.2505 12.3998 11.044C12.1958 10.8375 11.9449 10.7342 11.6471 10.7342ZM10.0588 6.55988H8.27206C8.13971 6.94035 7.93015 7.28821 7.64338 7.60345L8.42096 8.95684C8.48713 9.07642 8.50092 9.20415 8.46232 9.34003C8.42371 9.47591 8.34926 9.5819 8.23897 9.658L7.36213 10.1635C7.24081 10.2287 7.11397 10.2423 6.98162 10.2042C6.84926 10.1662 6.75 10.0874 6.68382 9.96781L5.88971 8.59811C5.68015 8.63072 5.48162 8.64703 5.29412 8.64703C5.10662 8.64703 4.90809 8.63072 4.69853 8.59811L3.90441 9.96781C3.83824 10.0874 3.73897 10.1662 3.60662 10.2042C3.47426 10.2423 3.34743 10.2287 3.2261 10.1635L2.34926 9.658C2.23897 9.5819 2.16452 9.47591 2.12592 9.34003C2.08732 9.20415 2.1011 9.07642 2.16728 8.95684L2.94485 7.60345C2.65809 7.28821 2.44853 6.94035 2.31618 6.55988H0.529412C0.386029 6.55988 0.261949 6.51096 0.157169 6.41312C0.0523897 6.31529 0 6.19027 0 6.03809V4.99451C0 4.85319 0.0523897 4.7309 0.157169 4.62763C0.261949 4.52435 0.386029 4.47272 0.529412 4.47272H2.31618C2.44853 4.10312 2.65809 3.75526 2.94485 3.42914L2.16728 2.07575C2.1011 1.95617 2.08732 1.82845 2.12592 1.69256C2.16452 1.55668 2.23897 1.45613 2.34926 1.3909L3.2261 0.88542C3.34743 0.809326 3.47426 0.790303 3.60662 0.82835C3.73897 0.866397 3.83824 0.945209 3.90441 1.06479L4.69853 2.45079C4.91912 2.4073 5.11765 2.38556 5.29412 2.38556C5.47059 2.38556 5.66912 2.4073 5.88971 2.45079L6.68382 1.06479C6.75 0.945209 6.84926 0.866397 6.98162 0.82835C7.11397 0.790303 7.24081 0.809326 7.36213 0.88542L8.23897 1.3909C8.34926 1.45613 8.42371 1.55668 8.46232 1.69256C8.50092 1.82845 8.48713 1.95617 8.42096 2.07575L7.64338 3.42914C7.93015 3.75526 8.13971 4.10312 8.27206 4.47272H10.0588C10.2022 4.47272 10.3263 4.52435 10.4311 4.62763C10.5358 4.7309 10.5882 4.85319 10.5882 4.99451V6.03809C10.5882 6.19027 10.5358 6.31529 10.4311 6.41312C10.3263 6.51096 10.2022 6.55988 10.0588 6.55988ZM5.29412 4.47272C4.99632 4.47272 4.7454 4.57599 4.54136 4.78253C4.33732 4.98907 4.23529 5.23638 4.23529 5.52445C4.23529 5.81252 4.33732 6.05711 4.54136 6.25822C4.7454 6.45932 4.99632 6.55988 5.29412 6.55988C5.59191 6.55988 5.84283 6.45932 6.04687 6.25822C6.25092 6.05711 6.35294 5.81252 6.35294 5.52445C6.35294 5.23638 6.25092 4.98907 6.04687 4.78253C5.84283 4.57599 5.59191 4.47272 5.29412 4.47272Z" fill="#C4C4C4"/>
</svg>
